<?xml version="1.0" standalone="no"?>
<!DOCTYPE svg PUBLIC "-//W3C//DTD SVG 20010904//EN"
 "http://www.w3.org/TR/2001/REC-SVG-20010904/DTD/svg10.dtd">
<svg version="1.0" xmlns="http://www.w3.org/2000/svg"
 width="943.000000pt" height="943.000000pt" viewBox="0 0 943.000000 943.000000"
 preserveAspectRatio="xMidYMid meet">
<metadata>
Created by potrace 1.14, written by Peter Selinger 2001-2017
</metadata>
<g transform="translate(0.000000,943.000000) scale(0.100000,-0.100000)"
fill="#000000" stroke="none">
<path d="M3241 7949 c-1189 -1189 -1469 -1474 -1460 -1485 6 -8 668 -671 1471
-1474 l1460 -1460 32 28 c37 34 2916 2913 2916 2917 0 3 -2942 2945 -2945
2945 -2 0 -665 -662 -1474 -1471z"/>
<path d="M595 5304 c-319 -321 -581 -585 -583 -587 -3 -5 1168 -1177 1177
-1177 3 0 270 264 594 588 l587 587 -588 588 c-323 323 -592 586 -597 586 -6
-1 -271 -264 -590 -585z"/>
<path d="M7657 5296 l-588 -590 590 -590 591 -591 591 591 590 590 -574 575
c-316 316 -583 581 -593 590 -18 14 -53 -19 -607 -575z"/>
<path d="M2367 3542 c-323 -323 -587 -590 -587 -593 0 -4 264 -270 586 -593
l586 -586 32 28 c58 52 1146 1144 1146 1151 0 3 -264 270 -588 594 l-587 587
-588 -588z"/>
<path d="M5893 3531 l-591 -591 591 -591 591 -590 587 587 c459 459 586 591
579 603 -5 9 -269 276 -588 594 l-578 578 -591 -590z"/>
<path d="M4129 1769 l-587 -589 591 -590 591 -591 588 588 c323 323 588 590
588 593 0 7 -1174 1180 -1180 1179 -3 -1 -269 -266 -591 -590z"/>
</g>
</svg>
